PathFileType	4	(X/Y/Z)	C:/Users/opensim2020/Desktop/walking_exp_matlab/subject01_walking04_straight_03.trc	
DataRate	CameraRate	NumFrames	NumMarkers	Units	OrigDataRate	OrigDataStartFrame	OrigNumFrames	
100.00	100.00	7	43	mm	100.00	2154	211	
Frame#	Time	LFHD			RFHD			LBHD			RBHD			C7			T10			CLAV			STRN			RBAK			LSHO			LUPA			LELB			LFRM			LWRA			LWRB			LFIN			RSHO			RUPA			RELB			RFRM			RWRA			RWRB			RFIN			LASI			RASI			LPSI			RPSI			LTHI			LKNE			LTIB			LANK			LHEE			LTOE			RTHI			RKNE			RTIB			RANK			RHEE			RTOE			*39			*40			*41			*42			
		X1	Y1	Z1	X2	Y2	Z2	X3	Y3	Z3	X4	Y4	Z4	X5	Y5	Z5	X6	Y6	Z6	X7	Y7	Z7	X8	Y8	Z8	X9	Y9	Z9	X10	Y10	Z10	X11	Y11	Z11	X12	Y12	Z12	X13	Y13	Z13	X14	Y14	Z14	X15	Y15	Z15	X16	Y16	Z16	X17	Y17	Z17	X18	Y18	Z18	X19	Y19	Z19	X20	Y20	Z20	X21	Y21	Z21	X22	Y22	Z22	X23	Y23	Z23	X24	Y24	Z24	X25	Y25	Z25	X26	Y26	Z26	X27	Y27	Z27	X28	Y28	Z28	X29	Y29	Z29	X30	Y30	Z30	X31	Y31	Z31	X32	Y32	Z32	X33	Y33	Z33	X34	Y34	Z34	X35	Y35	Z35	X36	Y36	Z36	X37	Y37	Z37	X38	Y38	Z38	X39	Y39	Z39	X40	Y40	Z40	X41	Y41	Z41	X42	Y42	Z42	X43	Y43	Z43	

53	0.520	-1095.29004	-560.55396	1668.98450	-982.88922	-541.03815	1675.76416	-1080.47571	-676.70703	1623.03235	-960.79993	-659.00787	1629.06958	-1036.52051	-716.64410	1434.27991	-1026.86133	-758.44958	1142.36548	-1040.75317	-574.47797	1362.14819	-1046.46924	-536.46625	1207.49365	-955.33221	-772.47534	1241.53638	-1200.30371	-640.08484	1392.01196	-1281.07617	-687.61377	1209.72009	-1278.13049	-716.96143	1061.60278	-1302.59753	-690.74603	950.28784	-1283.55823	-623.69537	827.50586	-1308.69885	-678.92767	828.23413	-1313.92920	-639.06293	752.45532	-886.68121	-631.42871	1390.49695	-778.15118	-681.34540	1192.71765	-765.80328	-672.09900	1066.98047	-737.02130	-611.96661	959.76953	-762.84155	-502.88638	870.60992	-720.57013	-542.12927	860.50409	-722.74756	-484.12723	798.17261	-1133.25134	-586.05267	935.36542	-914.82739	-589.42914	934.55017	-1084.94067	-773.10095	945.44354	-940.59967	-775.12347	950.44556	-1205.16052	-530.67670	623.57202	-1193.63049	-507.58249	491.39935	-1196.42456	-606.03632	331.06976	-1145.96045	-692.66296	130.72290	-1084.07544	-732.57007	109.61073	-1179.59558	-575.21942	52.85941	-873.91205	-661.63483	599.94727	-906.72681	-659.17389	442.04776	-907.56293	-716.32434	274.26010	-967.68207	-742.38904	71.46719	-1020.84265	-790.50476	34.64505	-966.71564	-601.57172	33.38012	-1004.93213	-554.28424	1709.36487	-3102.25488	1973.07666	1024.03845	-3138.41772	2013.17285	1022.26990			 
54	0.530	-1094.44885	-552.11591	1668.63708	-981.92511	-532.51587	1675.38098	-1079.47852	-668.32159	1622.84192	-959.81287	-650.54132	1628.78369	-1035.55566	-708.41803	1434.08325	-1025.86768	-750.17963	1142.11340	-1039.68665	-566.13519	1361.84985	-1045.67212	-528.19690	1207.04675	-954.29742	-764.26495	1241.29968	-1199.43445	-631.75842	1391.78625	-1280.15283	-680.22638	1209.58728	-1276.89844	-710.68903	1061.99646	-1301.32068	-686.46277	950.27081	-1282.00452	-622.03967	826.09253	-1307.44873	-677.12115	828.01636	-1312.03601	-639.00513	751.11487	-885.71521	-623.04761	1390.02075	-777.27124	-672.01605	1191.95361	-764.56659	-661.83392	1066.27380	-736.29578	-599.51337	960.12036	-762.22620	-488.45126	873.56622	-720.44965	-527.71729	862.28870	-722.73383	-468.00195	801.40381	-1132.60840	-577.58240	935.17548	-914.04321	-581.74933	933.71576	-1084.80750	-764.75354	945.28735	-940.48053	-767.65332	950.43896	-1203.87915	-519.79419	624.31232	-1191.13806	-496.23218	492.06506	-1194.18188	-588.24384	326.95575	-1143.80408	-664.66956	122.35821	-1081.78296	-703.48444	99.38222	-1178.21826	-543.61749	50.91063	-873.89856	-656.79834	599.53485	-906.36340	-655.68445	441.63232	-907.64093	-714.36395	274.31555	-967.75482	-741.85931	71.49504	-1021.02728	-790.05261	34.89459	-966.72528	-601.47772	33.37710	-1004.00641	-545.68225	1708.95813	-3103.30591	1972.73352	1024.42419	-3138.56104	2013.11499	1022.18317			 
55	0.540	-1093.56079	-543.67542	1668.22021	-980.97119	-523.78223	1675.11951	-1078.32288	-659.72290	1622.44348	-958.87183	-641.97961	1628.44336	-1034.61633	-699.96021	1433.78125	-1024.95435	-741.83661	1141.77747	-1039.30469	-557.70056	1361.47095	-1044.89844	-519.89709	1206.54883	-953.22583	-756.31659	1241.11621	-1198.58020	-623.40631	1391.42090	-1279.19934	-672.83777	1209.31470	-1275.67651	-704.35876	1062.16492	-1300.03796	-682.13141	950.21399	-1280.80835	-619.94135	824.91962	-1306.22192	-675.05048	827.70520	-1310.38660	-638.71008	749.86108	-885.04529	-614.44977	1389.46912	-776.38629	-662.57739	1191.24512	-763.37250	-651.46417	1065.57373	-735.61346	-587.04462	960.43982	-762.09863	-474.26596	876.44183	-720.39636	-513.30231	864.04132	-723.00006	-452.28983	804.55475	-1131.89075	-569.10809	934.83063	-913.37823	-574.22595	932.71478	-1084.75537	-756.39551	945.10950	-940.41455	-759.57605	949.94434	-1202.60364	-509.50186	624.52130	-1189.19226	-485.95508	492.28497	-1192.54919	-570.51263	322.58109	-1141.73987	-636.30530	114.22295	-1079.49365	-673.52319	89.24197	-1176.81628	-511.79031	49.13125	-873.85297	-651.79120	599.10455	-906.33044	-652.65845	441.33173	-907.71582	-712.74219	274.41168	-967.86957	-741.65833	71.85708	-1021.33368	-789.39703	34.76445	-966.69348	-601.24548	33.24661	-1003.18896	-537.18427	1708.55737	-3102.07666	1973.13391	1024.53931	-3137.97119	2013.27686	1022.39673			 
56	0.550	-1092.82751	-535.19568	1667.68909	-980.33344	-515.36395	1674.46899	-1077.71143	-651.39020	1622.00610	-958.01208	-633.42645	1628.04810	-1033.79736	-691.58795	1433.25464	-1024.19250	-733.38409	1141.28418	-1038.21973	-549.33044	1360.86328	-1044.15112	-511.61429	1205.99060	-952.40051	-747.66901	1240.56091	-1197.88733	-615.05127	1390.99341	-1278.31628	-665.39685	1208.93970	-1274.58740	-697.87250	1062.31702	-1298.97375	-677.65857	950.02991	-1279.53174	-617.77350	823.42969	-1305.10022	-672.75732	827.50055	-1308.94250	-638.11285	748.69562	-884.31738	-605.90802	1388.87695	-775.52917	-652.90759	1190.55725	-762.48456	-640.73541	1064.98853	-735.09967	-574.67542	960.81738	-762.21106	-460.41077	879.16565	-720.42712	-498.99728	865.70306	-723.35889	-436.68192	807.65997	-1131.31726	-560.34662	934.52423	-912.71869	-566.50421	931.58893	-1084.81616	-747.94824	944.76355	-940.49677	-751.65955	949.61279	-1201.33374	-499.51050	624.60565	-1186.96375	-475.93069	492.13443	-1190.67261	-552.69958	317.96210	-1139.90662	-607.42926	106.43675	-1077.29211	-643.11566	80.01124	-1175.33826	-479.91602	47.80954	-873.72467	-646.93445	598.70465	-906.11530	-649.55200	440.79947	-907.65558	-711.02307	274.65662	-967.95215	-741.54663	72.25280	-1021.62573	-789.40973	35.55610	-966.75000	-601.46405	33.17023	-1002.39246	-528.53406	1707.99292	-3102.67236	1972.95496	1024.49109	-3138.34155	2013.12622	1022.19952			 
57	0.560	-1092.31348	-526.82465	1667.07446	-979.94769	-507.07141	1674.02917	-1076.97363	-642.94623	1621.44897	-957.27588	-624.84906	1627.53430	-1032.98462	-682.94220	1432.57434	-1023.58124	-724.96533	1140.63098	-1037.38318	-540.91858	1360.25586	-1043.49939	-503.13647	1205.39233	-951.46442	-739.53217	1240.11353	-1197.15845	-606.65173	1390.39294	-1277.53723	-657.92987	1208.48096	-1273.55066	-691.30963	1062.25696	-1297.90527	-672.85687	949.82935	-1278.61792	-615.17102	822.21741	-1303.99207	-670.19995	827.13831	-1307.67358	-637.13409	747.56689	-883.66211	-597.53296	1388.27710	-774.72577	-643.12781	1189.85876	-761.25751	-630.40851	1064.44312	-734.67267	-562.36780	961.18073	-762.44147	-446.79877	881.76111	-720.59570	-485.03354	867.40491	-723.93359	-421.25360	810.69440	-1130.64197	-551.62854	933.96600	-912.07947	-558.52277	930.71490	-1084.95044	-739.40485	944.33521	-940.72638	-743.73090	949.16400	-1200.25256	-489.85504	624.71655	-1185.33350	-466.53210	491.48068	-1189.21289	-535.10626	313.35913	-1138.27893	-578.07202	99.34341	-1075.55017	-612.46887	71.57577	-1173.30823	-447.62628	46.93412	-873.67999	-641.69653	598.12482	-906.35516	-645.99371	440.32224	-907.70593	-708.85773	274.70255	-968.02246	-741.14105	72.74557	-1021.82202	-788.93195	35.96030	-966.74817	-601.16174	33.09224	-1002.15021	-520.17310	1707.30688	-3102.61084	1972.95007	1023.91364						 
58	0.570	-1091.78430	-518.32977	1666.33752	-979.33582	-498.51077	1673.36646	-1076.42261	-634.50684	1620.85645	-956.67004	-616.21625	1626.77161	-1032.30701	-674.40649	1431.84680	-1023.08612	-716.47424	1139.97314	-1036.93628	-532.42242	1359.57837	-1042.89307	-494.59805	1204.71118	-950.74628	-730.68683	1239.28833	-1196.63135	-598.22443	1389.77502	-1276.75330	-650.43121	1207.91968	-1272.58386	-684.52051	1062.14343	-1297.06287	-667.80524	949.56299	-1277.94128	-612.17218	821.09949	-1303.30969	-667.19324	826.89313	-1306.74756	-635.52954	746.52307	-883.04199	-588.88446	1387.66663	-773.87677	-633.17328	1189.18408	-760.30939	-619.93964	1063.80811	-734.33990	-550.11322	961.54663	-762.84283	-433.41873	884.27600	-720.85474	-471.10211	869.14514	-724.49237	-406.38998	813.60382	-1129.90149	-542.79535	933.33563	-911.58319	-549.94427	929.94452	-1085.20911	-730.74420	943.80823	-941.09399	-735.75580	948.62256	-1198.96216	-481.04160	623.90613	-1183.67896	-457.83594	490.40179	-1188.04321	-517.50061	309.00278	-1136.78772	-548.43781	93.04040	-1074.08826	-581.86523	64.12663	-1170.85046	-415.19629	46.80613	-873.57764	-636.34521	597.83698	-906.48016	-643.06482	439.65204	-907.64575	-706.88983	274.83401	-968.15295	-740.85181	72.94563	-1022.00623	-789.09613	36.95763	-966.74817	-601.10785	33.07264	-1001.45313	-511.54688	1706.71790	-3102.25244	1973.07813	1024.02661	-3138.55981	2013.10962	1022.31226			 
59	0.580	-1091.33130	-509.85696	1665.52209	-978.86652	-489.59882	1672.48389	-1075.96838	-626.03406	1620.01123	-956.25470	-607.70831	1626.12085	-1031.78650	-665.99524	1431.08728	-1022.73059	-707.95648	1139.18774	-1036.48145	-523.77991	1358.82336	-1042.26709	-486.01831	1203.96667	-950.12598	-722.05389	1238.50427	-1196.14893	-589.71143	1389.01013	-1276.12048	-642.88513	1207.23157	-1271.72839	-677.60016	1061.88745	-1296.25159	-662.52734	949.17145	-1277.34204	-608.82886	819.78705	-1302.44055	-663.88214	826.44348	-1305.72693	-633.93549	745.37836	-882.66132	-580.15656	1386.98596	-773.08997	-623.15656	1188.52246	-759.49371	-609.38422	1063.13232	-734.10779	-537.99487	961.86298	-763.42725	-420.13077	886.62079	-721.28662	-457.41718	870.68494	-725.34155	-391.75266	816.42822	-1129.02759	-534.01483	932.52228	-910.76648	-542.72809	928.66113	-1085.57385	-722.07550	943.15955	-941.56824	-728.11462	948.31110	-1197.81665	-472.79327	622.61078	-1182.20532	-449.50308	489.02438	-1186.90649	-500.16370	305.26459	-1135.52832	-518.84601	87.50863	-1073.57593	-551.54889	57.81860	-1168.07739	-383.01105	47.84009	-873.51331	-630.96393	597.32642	-906.13824	-638.72467	439.44678	-907.63538	-704.64447	275.00613	-968.22913	-741.03143	73.45585	-1022.24469	-788.57330	37.35665	-966.73138	-600.90234	32.96682	-1001.13708	-503.05731	1705.72644	-3102.11646	1973.13940	1023.98779	-3138.51294	2013.16638	1022.03748			 
